# MagicaVoxel @ Ephtracy

# group
o 

# material
mtllib AlarmClock.mtl
usemtl palette

# normals
vn -1 0 0
vn 1 0 0
vn 0 0 1
vn 0 0 -1
vn 0 -1 0
vn 0 1 0

# texcoords
vt 0.0957031 0.5
vt 0.400391 0.5
vt 0.775391 0.5
vt 0.994141 0.5

# verts
v -1.2 0.4 0.2
v -1.2 0.4 0.0999998
v -1.2 0.7 0.2
v -1.2 0.7 0.0999998
v -1.1 0.1 0.3
v -1.1 0.1 -0.8
v -1.1 0.4 0.2
v -1.1 0.4 0.0999998
v -1.1 0.7 0.2
v -1.1 0.7 0.0999998
v -1.1 0.8 0.3
v -1.1 0.8 -0.8
v -1 0 0.3
v -1 0 -0.7
v -1 0.1 0.3
v -1 0.1 -0.7
v -1 0.8 0.3
v -1 0.8 -0.7
v -1 0.9 0.3
v -1 0.9 -0.7
v -0.6 0.9 -0.1
v -0.6 0.9 -0.2
v -0.6 1 -0.1
v -0.6 1 -0.2
v -0.0999999 0.1 -0.6
v -0.0999999 0.1 -0.7
v -0.0999999 0.2 -0.6
v -0.0999999 0.2 -0.7
v 0.2 0 0.3
v 0.2 0 0.2
v 0.2 0 -0.6
v 0.2 0 -0.7
v 0.2 0.1 0.3
v 0.2 0.1 0.2
v 0.2 0.1 -0.6
v 0.2 0.1 -0.7
v 0.8 0.9 0.2
v 0.8 0.9 0.0999998
v 0.8 0.9 -1.49012e-07
v 0.8 0.9 -0.1
v 0.8 1 0.2
v 0.8 1 0.0999998
v 0.8 1 -1.49012e-07
v 0.8 1 -0.1
v 1.1 0.1 0.3
v 1.1 0.1 0.2
v 1.1 0.1 0.0999998
v 1.1 0.1 -0.7
v 1.1 0.8 0.3
v 1.1 0.8 0.2
v 1.1 0.8 0.0999998
v 1.1 0.8 -0.7
v -1 0.1 0.3
v -1 0.1 0.2
v -1 0.1 0.0999998
v -1 0.1 -0.7
v -1 0.8 0.3
v -1 0.8 0.2
v -1 0.8 0.0999998
v -1 0.8 -0.7
v -0.4 0.9 -0.1
v -0.4 0.9 -0.2
v -0.4 1 -0.1
v -0.4 1 -0.2
v -0.0999999 0 0.3
v -0.0999999 0 0.2
v -0.0999999 0 -0.6
v -0.0999999 0 -0.7
v -0.0999999 0.1 0.3
v -0.0999999 0.1 0.2
v -0.0999999 0.1 -0.6
v -0.0999999 0.1 -0.7
v 0.2 0.1 -0.6
v 0.2 0.1 -0.7
v 0.2 0.2 -0.6
v 0.2 0.2 -0.7
v 1 0.9 0.2
v 1 0.9 0.0999998
v 1 0.9 -1.49012e-07
v 1 0.9 -0.1
v 1 1 0.2
v 1 1 0.0999998
v 1 1 -1.49012e-07
v 1 1 -0.1
v 1.1 0 0.3
v 1.1 0 -0.7
v 1.1 0.1 0.3
v 1.1 0.1 -0.7
v 1.1 0.8 0.3
v 1.1 0.8 -0.7
v 1.1 0.9 0.3
v 1.1 0.9 -0.7
v 1.2 0.1 0.3
v 1.2 0.1 -0.8
v 1.2 0.8 0.3
v 1.2 0.8 -0.8
v -1.1 0.1 0.3
v -1.1 0.8 0.3
v -1 0 0.3
v -1 0.1 0.3
v -1 0.8 0.3
v -1 0.9 0.3
v -0.0999999 0 0.3
v -0.0999999 0.1 0.3
v 0.2 0 0.3
v 0.2 0.1 0.3
v 1.1 0 0.3
v 1.1 0.1 0.3
v 1.1 0.8 0.3
v 1.1 0.9 0.3
v 1.2 0.1 0.3
v 1.2 0.8 0.3
v -1.2 0.4 0.2
v -1.2 0.7 0.2
v -1.1 0.4 0.2
v -1.1 0.7 0.2
v -1 0.1 0.2
v -1 0.8 0.2
v -0.8 0.2 0.2
v -0.8 0.3 0.2
v -0.8 0.6 0.2
v -0.8 0.7 0.2
v -0.7 0.2 0.2
v -0.7 0.3 0.2
v -0.7 0.4 0.2
v -0.6 0.3 0.2
v -0.6 0.4 0.2
v -0.6 0.5 0.2
v -0.5 0.4 0.2
v -0.5 0.5 0.2
v -0.5 0.6 0.2
v -0.4 0.5 0.2
v -0.4 0.7 0.2
v -0.3 0.3 0.2
v -0.3 0.4 0.2
v -0.3 0.5 0.2
v -0.3 0.6 0.2
v -0.2 0.3 0.2
v -0.2 0.4 0.2
v -0.2 0.5 0.2
v -0.2 0.6 0.2
v -0.0999999 0 0.2
v -0.0999999 0.1 0.2
v 1.19209e-07 0.3 0.2
v 1.19209e-07 0.4 0.2
v 1.19209e-07 0.5 0.2
v 1.19209e-07 0.6 0.2
v 0.1 0.2 0.2
v 0.1 0.3 0.2
v 0.1 0.4 0.2
v 0.1 0.5 0.2
v 0.1 0.6 0.2
v 0.1 0.7 0.2
v 0.2 0 0.2
v 0.2 0.1 0.2
v 0.2 0.4 0.2
v 0.2 0.5 0.2
v 0.3 0.2 0.2
v 0.3 0.3 0.2
v 0.3 0.4 0.2
v 0.3 0.5 0.2
v 0.3 0.6 0.2
v 0.3 0.7 0.2
v 0.4 0.3 0.2
v 0.4 0.4 0.2
v 0.4 0.5 0.2
v 0.4 0.6 0.2
v 0.5 0.3 0.2
v 0.5 0.6 0.2
v 0.6 0.2 0.2
v 0.6 0.3 0.2
v 0.6 0.6 0.2
v 0.6 0.7 0.2
v 0.8 0.2 0.2
v 0.8 0.3 0.2
v 0.8 0.6 0.2
v 0.8 0.7 0.2
v 0.8 0.9 0.2
v 0.8 1 0.2
v 0.9 0.3 0.2
v 0.9 0.6 0.2
v 1 0.9 0.2
v 1 1 0.2
v 1.1 0.1 0.2
v 1.1 0.8 0.2
v 0.8 0.9 -1.49012e-07
v 0.8 1 -1.49012e-07
v 1 0.9 -1.49012e-07
v 1 1 -1.49012e-07
v -0.6 0.9 -0.1
v -0.6 1 -0.1
v -0.4 0.9 -0.1
v -0.4 1 -0.1
v -0.0999999 0.1 -0.6
v -0.0999999 0.2 -0.6
v 0.2 0.1 -0.6
v 0.2 0.2 -0.6
v -1 0.1 -0.7
v -1 0.8 -0.7
v -0.0999999 0.1 -0.7
v -0.0999999 0.2 -0.7
v 0.2 0.1 -0.7
v 0.2 0.2 -0.7
v 1.1 0.1 -0.7
v 1.1 0.8 -0.7
v -1.2 0.4 0.0999998
v -1.2 0.7 0.0999998
v -1.1 0.4 0.0999998
v -1.1 0.7 0.0999998
v -1 0.1 0.0999998
v -1 0.8 0.0999998
v -0.8 0.2 0.0999998
v -0.8 0.3 0.0999998
v -0.8 0.6 0.0999998
v -0.8 0.7 0.0999998
v -0.7 0.2 0.0999998
v -0.7 0.3 0.0999998
v -0.7 0.4 0.0999998
v -0.6 0.3 0.0999998
v -0.6 0.4 0.0999998
v -0.6 0.5 0.0999998
v -0.5 0.4 0.0999998
v -0.5 0.5 0.0999998
v -0.5 0.6 0.0999998
v -0.4 0.5 0.0999998
v -0.4 0.7 0.0999998
v -0.3 0.3 0.0999998
v -0.3 0.4 0.0999998
v -0.3 0.5 0.0999998
v -0.3 0.6 0.0999998
v -0.2 0.3 0.0999998
v -0.2 0.4 0.0999998
v -0.2 0.5 0.0999998
v -0.2 0.6 0.0999998
v 1.19209e-07 0.3 0.0999998
v 1.19209e-07 0.4 0.0999998
v 1.19209e-07 0.5 0.0999998
v 1.19209e-07 0.6 0.0999998
v 0.1 0.2 0.0999998
v 0.1 0.3 0.0999998
v 0.1 0.4 0.0999998
v 0.1 0.5 0.0999998
v 0.1 0.6 0.0999998
v 0.1 0.7 0.0999998
v 0.2 0.4 0.0999998
v 0.2 0.5 0.0999998
v 0.3 0.2 0.0999998
v 0.3 0.3 0.0999998
v 0.3 0.4 0.0999998
v 0.3 0.5 0.0999998
v 0.3 0.6 0.0999998
v 0.3 0.7 0.0999998
v 0.4 0.3 0.0999998
v 0.4 0.4 0.0999998
v 0.4 0.5 0.0999998
v 0.4 0.6 0.0999998
v 0.5 0.3 0.0999998
v 0.5 0.6 0.0999998
v 0.6 0.2 0.0999998
v 0.6 0.3 0.0999998
v 0.6 0.6 0.0999998
v 0.6 0.7 0.0999998
v 0.8 0.2 0.0999998
v 0.8 0.3 0.0999998
v 0.8 0.6 0.0999998
v 0.8 0.7 0.0999998
v 0.8 0.9 0.0999998
v 0.8 1 0.0999998
v 0.9 0.3 0.0999998
v 0.9 0.6 0.0999998
v 1 0.9 0.0999998
v 1 1 0.0999998
v 1.1 0.1 0.0999998
v 1.1 0.8 0.0999998
v 0.8 0.9 -0.1
v 0.8 1 -0.1
v 1 0.9 -0.1
v 1 1 -0.1
v -0.6 0.9 -0.2
v -0.6 1 -0.2
v -0.4 0.9 -0.2
v -0.4 1 -0.2
v -0.0999999 0 -0.6
v -0.0999999 0.1 -0.6
v 0.2 0 -0.6
v 0.2 0.1 -0.6
v -1 0 -0.7
v -1 0.1 -0.7
v -1 0.8 -0.7
v -1 0.9 -0.7
v -0.0999999 0 -0.7
v -0.0999999 0.1 -0.7
v 0.2 0 -0.7
v 0.2 0.1 -0.7
v 1.1 0 -0.7
v 1.1 0.1 -0.7
v 1.1 0.8 -0.7
v 1.1 0.9 -0.7
v -1.1 0.1 -0.8
v -1.1 0.8 -0.8
v 1.2 0.1 -0.8
v 1.2 0.8 -0.8
v -1 0 0.3
v -0.0999999 0 0.3
v 0.2 0 0.3
v 1.1 0 0.3
v -0.0999999 0 0.2
v 0.2 0 0.2
v -0.0999999 0 -0.6
v 0.2 0 -0.6
v -1 0 -0.7
v -0.0999999 0 -0.7
v 0.2 0 -0.7
v 1.1 0 -0.7
v -1.1 0.1 0.3
v -1 0.1 0.3
v 1.1 0.1 0.3
v 1.2 0.1 0.3
v -0.0999999 0.1 -0.6
v 0.2 0.1 -0.6
v -1 0.1 -0.7
v -0.0999999 0.1 -0.7
v 0.2 0.1 -0.7
v 1.1 0.1 -0.7
v -1.1 0.1 -0.8
v 1.2 0.1 -0.8
v -1.2 0.4 0.2
v -1.1 0.4 0.2
v -1.2 0.4 0.0999998
v -1.1 0.4 0.0999998
v -1 0.8 0.3
v 1.1 0.8 0.3
v -1 0.8 0.2
v 1.1 0.8 0.2
v -1 0.8 0.0999998
v 1.1 0.8 0.0999998
v -1 0.8 -0.7
v 1.1 0.8 -0.7
v -1 0.1 0.3
v -0.0999999 0.1 0.3
v 0.2 0.1 0.3
v 1.1 0.1 0.3
v -1 0.1 0.2
v -0.0999999 0.1 0.2
v 0.2 0.1 0.2
v 1.1 0.1 0.2
v -1 0.1 0.0999998
v 1.1 0.1 0.0999998
v -0.0999999 0.1 -0.6
v 0.2 0.1 -0.6
v -1 0.1 -0.7
v -0.0999999 0.1 -0.7
v 0.2 0.1 -0.7
v 1.1 0.1 -0.7
v -0.0999999 0.2 -0.6
v 0.2 0.2 -0.6
v -0.0999999 0.2 -0.7
v 0.2 0.2 -0.7
v -1.2 0.7 0.2
v -1.1 0.7 0.2
v -1.2 0.7 0.0999998
v -1.1 0.7 0.0999998
v -1.1 0.8 0.3
v -1 0.8 0.3
v 1.1 0.8 0.3
v 1.2 0.8 0.3
v -1 0.8 -0.7
v 1.1 0.8 -0.7
v -1.1 0.8 -0.8
v 1.2 0.8 -0.8
v -1 0.9 0.3
v 1.1 0.9 0.3
v 0.8 0.9 0.2
v 1 0.9 0.2
v 0.8 0.9 0.0999998
v 1 0.9 0.0999998
v 0.8 0.9 -1.49012e-07
v 1 0.9 -1.49012e-07
v -0.6 0.9 -0.1
v -0.4 0.9 -0.1
v 0.8 0.9 -0.1
v 1 0.9 -0.1
v -0.6 0.9 -0.2
v -0.4 0.9 -0.2
v -1 0.9 -0.7
v 1.1 0.9 -0.7
v 0.8 1 0.2
v 1 1 0.2
v 0.8 1 0.0999998
v 1 1 0.0999998
v 0.8 1 -1.49012e-07
v 1 1 -1.49012e-07
v -0.6 1 -0.1
v -0.4 1 -0.1
v 0.8 1 -0.1
v 1 1 -0.1
v -0.6 1 -0.2
v -0.4 1 -0.2

# faces
f 3/3/1 2/3/1 1/3/1
f 4/3/1 2/3/1 3/3/1
f 7/2/1 6/2/1 5/2/1
f 8/2/1 6/2/1 7/2/1
f 9/2/1 7/2/1 5/2/1
f 10/2/1 6/2/1 8/2/1
f 11/2/1 9/2/1 5/2/1
f 11/2/1 10/2/1 9/2/1
f 12/2/1 6/2/1 10/2/1
f 12/2/1 10/2/1 11/2/1
f 15/2/1 14/2/1 13/2/1
f 16/2/1 14/2/1 15/2/1
f 19/2/1 18/2/1 17/2/1
f 20/2/1 18/2/1 19/2/1
f 23/3/1 22/3/1 21/3/1
f 24/3/1 22/3/1 23/3/1
f 27/2/1 26/2/1 25/2/1
f 28/2/1 26/2/1 27/2/1
f 33/2/1 30/2/1 29/2/1
f 34/2/1 30/2/1 33/2/1
f 35/2/1 32/2/1 31/2/1
f 36/2/1 32/2/1 35/2/1
f 41/3/1 38/3/1 37/3/1
f 42/3/1 38/3/1 41/3/1
f 43/3/1 40/3/1 39/3/1
f 44/3/1 40/3/1 43/3/1
f 49/2/1 46/2/1 45/2/1
f 50/2/1 46/2/1 49/2/1
f 51/2/1 48/2/1 47/2/1
f 52/2/1 48/2/1 51/2/1
f 53/2/2 54/2/2 57/2/2
f 57/2/2 54/2/2 58/2/2
f 55/2/2 56/2/2 59/2/2
f 59/2/2 56/2/2 60/2/2
f 61/3/2 62/3/2 63/3/2
f 63/3/2 62/3/2 64/3/2
f 65/2/2 66/2/2 69/2/2
f 69/2/2 66/2/2 70/2/2
f 67/2/2 68/2/2 71/2/2
f 71/2/2 68/2/2 72/2/2
f 73/2/2 74/2/2 75/2/2
f 75/2/2 74/2/2 76/2/2
f 77/3/2 78/3/2 81/3/2
f 81/3/2 78/3/2 82/3/2
f 79/3/2 80/3/2 83/3/2
f 83/3/2 80/3/2 84/3/2
f 85/2/2 86/2/2 87/2/2
f 87/2/2 86/2/2 88/2/2
f 89/2/2 90/2/2 91/2/2
f 91/2/2 90/2/2 92/2/2
f 93/2/2 94/2/2 95/2/2
f 95/2/2 94/2/2 96/2/2
f 100/2/3 98/2/3 97/2/3
f 101/2/3 98/2/3 100/2/3
f 103/2/3 100/2/3 99/2/3
f 104/2/3 100/2/3 103/2/3
f 107/2/3 106/2/3 105/2/3
f 108/2/3 106/2/3 107/2/3
f 109/2/3 102/2/3 101/2/3
f 110/2/3 102/2/3 109/2/3
f 111/2/3 109/2/3 108/2/3
f 112/2/3 109/2/3 111/2/3
f 115/3/3 114/3/3 113/3/3
f 116/3/3 114/3/3 115/3/3
f 119/4/3 118/4/3 117/4/3
f 120/4/3 118/4/3 119/4/3
f 121/4/3 118/4/3 120/4/3
f 122/4/3 118/4/3 121/4/3
f 123/4/3 119/4/3 117/4/3
f 123/1/3 120/1/3 119/1/3
f 124/4/3 121/4/3 120/4/3
f 124/1/3 120/1/3 123/1/3
f 125/4/3 121/4/3 124/4/3
f 126/4/3 124/4/3 123/4/3
f 126/1/3 125/1/3 124/1/3
f 127/4/3 121/4/3 125/4/3
f 127/1/3 125/1/3 126/1/3
f 128/4/3 121/4/3 127/4/3
f 129/4/3 127/4/3 126/4/3
f 129/1/3 128/1/3 127/1/3
f 130/4/3 121/4/3 128/4/3
f 130/1/3 128/1/3 129/1/3
f 131/1/3 122/1/3 121/1/3
f 131/4/3 121/4/3 130/4/3
f 132/4/3 130/4/3 129/4/3
f 132/1/3 131/1/3 130/1/3
f 133/4/3 118/4/3 122/4/3
f 133/1/3 131/1/3 132/1/3
f 133/1/3 122/1/3 131/1/3
f 134/4/3 132/4/3 129/4/3
f 134/4/3 129/4/3 126/4/3
f 134/4/3 133/4/3 132/4/3
f 134/4/3 126/4/3 123/4/3
f 135/4/3 133/4/3 134/4/3
f 136/4/3 133/4/3 135/4/3
f 137/4/3 133/4/3 136/4/3
f 138/4/3 134/4/3 123/4/3
f 138/1/3 135/1/3 134/1/3
f 139/4/3 136/4/3 135/4/3
f 139/1/3 135/1/3 138/1/3
f 140/1/3 137/1/3 136/1/3
f 140/4/3 136/4/3 139/4/3
f 141/4/3 133/4/3 137/4/3
f 141/1/3 137/1/3 140/1/3
f 143/4/3 123/4/3 117/4/3
f 143/4/3 140/4/3 139/4/3
f 143/4/3 141/4/3 140/4/3
f 143/4/3 138/4/3 123/4/3
f 143/4/3 139/4/3 138/4/3
f 144/4/3 141/4/3 143/4/3
f 145/4/3 141/4/3 144/4/3
f 146/4/3 141/4/3 145/4/3
f 147/4/3 133/4/3 141/4/3
f 147/4/3 141/4/3 146/4/3
f 148/4/3 144/4/3 143/4/3
f 149/1/3 145/1/3 144/1/3
f 149/4/3 144/4/3 148/4/3
f 150/4/3 146/4/3 145/4/3
f 150/1/3 145/1/3 149/1/3
f 151/1/3 147/1/3 146/1/3
f 151/4/3 146/4/3 150/4/3
f 152/4/3 133/4/3 147/4/3
f 152/1/3 147/1/3 151/1/3
f 153/4/3 118/4/3 133/4/3
f 153/4/3 133/4/3 152/4/3
f 154/2/3 143/2/3 142/2/3
f 155/4/3 148/4/3 143/4/3
f 155/2/3 143/2/3 154/2/3
f 156/4/3 152/4/3 151/4/3
f 156/4/3 151/4/3 150/4/3
f 156/4/3 150/4/3 149/4/3
f 157/4/3 152/4/3 156/4/3
f 158/4/3 148/4/3 155/4/3
f 158/1/3 149/1/3 148/1/3
f 159/4/3 156/4/3 149/4/3
f 159/1/3 149/1/3 158/1/3
f 160/1/3 157/1/3 156/1/3
f 160/4/3 156/4/3 159/4/3
f 161/4/3 152/4/3 157/4/3
f 161/1/3 157/1/3 160/1/3
f 162/1/3 153/1/3 152/1/3
f 162/4/3 152/4/3 161/4/3
f 163/4/3 118/4/3 153/4/3
f 163/1/3 153/1/3 162/1/3
f 164/1/3 160/1/3 159/1/3
f 164/4/3 159/4/3 158/4/3
f 165/4/3 161/4/3 160/4/3
f 165/1/3 160/1/3 164/1/3
f 166/1/3 162/1/3 161/1/3
f 166/4/3 161/4/3 165/4/3
f 167/4/3 163/4/3 162/4/3
f 167/1/3 162/1/3 166/1/3
f 168/4/3 166/4/3 165/4/3
f 168/4/3 165/4/3 164/4/3
f 168/4/3 167/4/3 166/4/3
f 168/4/3 164/4/3 158/4/3
f 169/4/3 163/4/3 167/4/3
f 169/4/3 167/4/3 168/4/3
f 170/4/3 168/4/3 158/4/3
f 170/4/3 158/4/3 155/4/3
f 171/1/3 169/1/3 168/1/3
f 171/4/3 168/4/3 170/4/3
f 172/4/3 163/4/3 169/4/3
f 172/1/3 169/1/3 171/1/3
f 173/4/3 118/4/3 163/4/3
f 173/4/3 163/4/3 172/4/3
f 174/1/3 171/1/3 170/1/3
f 174/4/3 170/4/3 155/4/3
f 175/4/3 172/4/3 171/4/3
f 175/1/3 171/1/3 174/1/3
f 176/1/3 173/1/3 172/1/3
f 176/4/3 172/4/3 175/4/3
f 177/4/3 118/4/3 173/4/3
f 177/1/3 173/1/3 176/1/3
f 180/1/3 176/1/3 175/1/3
f 180/4/3 175/4/3 174/4/3
f 181/4/3 177/4/3 176/4/3
f 181/1/3 176/1/3 180/1/3
f 182/3/3 179/3/3 178/3/3
f 183/3/3 179/3/3 182/3/3
f 184/4/3 174/4/3 155/4/3
f 184/4/3 180/4/3 174/4/3
f 184/4/3 181/4/3 180/4/3
f 185/4/3 177/4/3 181/4/3
f 185/4/3 181/4/3 184/4/3
f 185/4/3 118/4/3 177/4/3
f 188/3/3 187/3/3 186/3/3
f 189/3/3 187/3/3 188/3/3
f 192/3/3 191/3/3 190/3/3
f 193/3/3 191/3/3 192/3/3
f 196/2/3 195/2/3 194/2/3
f 197/2/3 195/2/3 196/2/3
f 200/2/3 199/2/3 198/2/3
f 201/2/3 199/2/3 200/2/3
f 203/2/3 199/2/3 201/2/3
f 204/2/3 203/2/3 202/2/3
f 205/2/3 199/2/3 203/2/3
f 205/2/3 203/2/3 204/2/3
f 206/3/4 207/3/4 208/3/4
f 208/3/4 207/3/4 209/3/4
f 210/4/4 211/4/4 212/4/4
f 212/4/4 211/4/4 213/4/4
f 213/4/4 211/4/4 214/4/4
f 214/4/4 211/4/4 215/4/4
f 210/4/4 212/4/4 216/4/4
f 212/1/4 213/1/4 216/1/4
f 213/4/4 214/4/4 217/4/4
f 216/1/4 213/1/4 217/1/4
f 217/4/4 214/4/4 218/4/4
f 216/4/4 217/4/4 219/4/4
f 217/1/4 218/1/4 219/1/4
f 218/4/4 214/4/4 220/4/4
f 219/1/4 218/1/4 220/1/4
f 220/4/4 214/4/4 221/4/4
f 219/4/4 220/4/4 222/4/4
f 220/1/4 221/1/4 222/1/4
f 221/4/4 214/4/4 223/4/4
f 222/1/4 221/1/4 223/1/4
f 214/1/4 215/1/4 224/1/4
f 223/4/4 214/4/4 224/4/4
f 222/4/4 223/4/4 225/4/4
f 223/1/4 224/1/4 225/1/4
f 215/4/4 211/4/4 226/4/4
f 225/1/4 224/1/4 226/1/4
f 224/1/4 215/1/4 226/1/4
f 222/4/4 225/4/4 227/4/4
f 219/4/4 222/4/4 227/4/4
f 225/4/4 226/4/4 227/4/4
f 216/4/4 219/4/4 227/4/4
f 227/4/4 226/4/4 228/4/4
f 228/4/4 226/4/4 229/4/4
f 229/4/4 226/4/4 230/4/4
f 216/4/4 227/4/4 231/4/4
f 227/1/4 228/1/4 231/1/4
f 228/4/4 229/4/4 232/4/4
f 231/1/4 228/1/4 232/1/4
f 229/1/4 230/1/4 233/1/4
f 232/4/4 229/4/4 233/4/4
f 230/4/4 226/4/4 234/4/4
f 233/1/4 230/1/4 234/1/4
f 232/4/4 233/4/4 235/4/4
f 231/4/4 232/4/4 235/4/4
f 233/4/4 234/4/4 235/4/4
f 216/4/4 231/4/4 235/4/4
f 235/4/4 234/4/4 236/4/4
f 236/4/4 234/4/4 237/4/4
f 234/4/4 226/4/4 238/4/4
f 237/4/4 234/4/4 238/4/4
f 210/4/4 216/4/4 239/4/4
f 216/4/4 235/4/4 239/4/4
f 235/1/4 236/1/4 240/1/4
f 239/4/4 235/4/4 240/4/4
f 236/4/4 237/4/4 241/4/4
f 240/1/4 236/1/4 241/1/4
f 237/1/4 238/1/4 242/1/4
f 241/4/4 237/4/4 242/4/4
f 238/4/4 226/4/4 243/4/4
f 242/1/4 238/1/4 243/1/4
f 226/4/4 211/4/4 244/4/4
f 243/4/4 226/4/4 244/4/4
f 242/4/4 243/4/4 245/4/4
f 241/4/4 242/4/4 245/4/4
f 240/4/4 241/4/4 245/4/4
f 245/4/4 243/4/4 246/4/4
f 239/1/4 240/1/4 247/1/4
f 210/4/4 239/4/4 247/4/4
f 240/4/4 245/4/4 248/4/4
f 247/1/4 240/1/4 248/1/4
f 245/1/4 246/1/4 249/1/4
f 248/4/4 245/4/4 249/4/4
f 246/4/4 243/4/4 250/4/4
f 249/1/4 246/1/4 250/1/4
f 243/1/4 244/1/4 251/1/4
f 250/4/4 243/4/4 251/4/4
f 244/4/4 211/4/4 252/4/4
f 251/1/4 244/1/4 252/1/4
f 248/1/4 249/1/4 253/1/4
f 247/4/4 248/4/4 253/4/4
f 249/4/4 250/4/4 254/4/4
f 253/1/4 249/1/4 254/1/4
f 250/1/4 251/1/4 255/1/4
f 254/4/4 250/4/4 255/4/4
f 251/4/4 252/4/4 256/4/4
f 255/1/4 251/1/4 256/1/4
f 253/4/4 254/4/4 257/4/4
f 247/4/4 253/4/4 257/4/4
f 255/4/4 256/4/4 257/4/4
f 254/4/4 255/4/4 257/4/4
f 256/4/4 252/4/4 258/4/4
f 257/4/4 256/4/4 258/4/4
f 247/4/4 257/4/4 259/4/4
f 210/4/4 247/4/4 259/4/4
f 257/1/4 258/1/4 260/1/4
f 259/4/4 257/4/4 260/4/4
f 258/4/4 252/4/4 261/4/4
f 260/1/4 258/1/4 261/1/4
f 252/4/4 211/4/4 262/4/4
f 261/4/4 252/4/4 262/4/4
f 259/1/4 260/1/4 263/1/4
f 210/4/4 259/4/4 263/4/4
f 260/4/4 261/4/4 264/4/4
f 263/1/4 260/1/4 264/1/4
f 261/1/4 262/1/4 265/1/4
f 264/4/4 261/4/4 265/4/4
f 262/4/4 211/4/4 266/4/4
f 265/1/4 262/1/4 266/1/4
f 264/1/4 265/1/4 269/1/4
f 263/4/4 264/4/4 269/4/4
f 265/4/4 266/4/4 270/4/4
f 269/1/4 265/1/4 270/1/4
f 267/3/4 268/3/4 271/3/4
f 271/3/4 268/3/4 272/3/4
f 210/4/4 263/4/4 273/4/4
f 263/4/4 269/4/4 273/4/4
f 269/4/4 270/4/4 273/4/4
f 270/4/4 266/4/4 274/4/4
f 273/4/4 270/4/4 274/4/4
f 266/4/4 211/4/4 274/4/4
f 275/3/4 276/3/4 277/3/4
f 277/3/4 276/3/4 278/3/4
f 279/3/4 280/3/4 281/3/4
f 281/3/4 280/3/4 282/3/4
f 283/2/4 284/2/4 285/2/4
f 285/2/4 284/2/4 286/2/4
f 287/2/4 288/2/4 291/2/4
f 291/2/4 288/2/4 292/2/4
f 293/2/4 294/2/4 295/2/4
f 295/2/4 294/2/4 296/2/4
f 289/2/4 290/2/4 297/2/4
f 297/2/4 290/2/4 298/2/4
f 299/2/4 300/2/4 301/2/4
f 301/2/4 300/2/4 302/2/4
f 307/2/5 304/2/5 303/2/5
f 308/2/5 306/2/5 305/2/5
f 309/2/5 307/2/5 303/2/5
f 309/2/5 308/2/5 307/2/5
f 310/2/5 306/2/5 308/2/5
f 310/2/5 308/2/5 309/2/5
f 311/2/5 309/2/5 303/2/5
f 312/2/5 309/2/5 311/2/5
f 313/2/5 306/2/5 310/2/5
f 314/2/5 306/2/5 313/2/5
f 321/2/5 316/2/5 315/2/5
f 322/2/5 320/2/5 319/2/5
f 323/2/5 320/2/5 322/2/5
f 324/2/5 318/2/5 317/2/5
f 325/2/5 321/2/5 315/2/5
f 325/2/5 324/2/5 323/2/5
f 325/2/5 323/2/5 322/2/5
f 325/2/5 322/2/5 321/2/5
f 326/2/5 318/2/5 324/2/5
f 326/2/5 324/2/5 325/2/5
f 329/3/5 328/3/5 327/3/5
f 330/3/5 328/3/5 329/3/5
f 333/2/5 332/2/5 331/2/5
f 334/2/5 332/2/5 333/2/5
f 337/2/5 336/2/5 335/2/5
f 338/2/5 336/2/5 337/2/5
f 339/2/6 340/2/6 343/2/6
f 343/2/6 340/2/6 344/2/6
f 341/2/6 342/2/6 345/2/6
f 345/2/6 342/2/6 346/2/6
f 347/2/6 348/2/6 349/2/6
f 349/2/6 348/2/6 350/2/6
f 347/2/6 349/2/6 351/2/6
f 351/2/6 349/2/6 352/2/6
f 350/2/6 348/2/6 353/2/6
f 353/2/6 348/2/6 354/2/6
f 355/2/6 356/2/6 357/2/6
f 357/2/6 356/2/6 358/2/6
f 359/3/6 360/3/6 361/3/6
f 361/3/6 360/3/6 362/3/6
f 363/2/6 364/2/6 367/2/6
f 365/2/6 366/2/6 368/2/6
f 363/2/6 367/2/6 369/2/6
f 367/2/6 368/2/6 369/2/6
f 368/2/6 366/2/6 370/2/6
f 369/2/6 368/2/6 370/2/6
f 371/2/6 372/2/6 373/2/6
f 373/2/6 372/2/6 374/2/6
f 371/2/6 373/2/6 375/2/6
f 374/2/6 372/2/6 376/2/6
f 371/2/6 375/2/6 377/2/6
f 375/2/6 376/2/6 377/2/6
f 376/2/6 372/2/6 378/2/6
f 377/2/6 376/2/6 378/2/6
f 371/2/6 377/2/6 379/2/6
f 379/2/6 377/2/6 380/2/6
f 380/2/6 377/2/6 381/2/6
f 378/2/6 372/2/6 382/2/6
f 371/2/6 379/2/6 383/2/6
f 380/2/6 381/2/6 384/2/6
f 381/2/6 382/2/6 384/2/6
f 371/2/6 383/2/6 385/2/6
f 383/2/6 384/2/6 385/2/6
f 384/2/6 382/2/6 386/2/6
f 385/2/6 384/2/6 386/2/6
f 382/2/6 372/2/6 386/2/6
f 387/3/6 388/3/6 389/3/6
f 389/3/6 388/3/6 390/3/6
f 391/3/6 392/3/6 395/3/6
f 395/3/6 392/3/6 396/3/6
f 393/3/6 394/3/6 397/3/6
f 397/3/6 394/3/6 398/3/6
